# xmcd
#
# Track frame offsets:
#	150
#	17898
#	34221
#	56019
#	72867
#	85215
#	97488
#	114861
#	126159
#	140757
#	159330
#	175353
#	192726
#	209724
#	223122
#	243795
#	260868
#	278991
#	292614
#	313512
#	327285
#	344958
#
# Disc length: 4778 seconds
#
# Revision: 0
# Processed by: cddbd v1.5.2PL0 Copyright (c) Steve Scherf et al.
# Submitted via: audiograbber 1.83.01
#
DISCID=6812a816
DTITLE=Carpenters - Greatest Hits
DYEAR=2019
DGENRE=
TTITLE0=Only Yesterday
TTITLE1=(They Long To Be) Close To You
TTITLE2=This Masquerade
TTITLE3=All You Get From Love Is A Love Song
TTITLE4=Please Mr. Postman
TTITLE5=Hurting Each Other
TTITLE6=Goodbye To Love
TTITLE7=For All We Know
TTITLE8=Sing
TTITLE9=Make Believe It's Your First Time
TTITLE10=Rainy Days And Mondays
TTITLE11=I Won't Last A Day Without You
TTITLE12=I Need To Be In Love
TTITLE13=Top Of The World
TTITLE14=A Song For You
TTITLE15=Superstar	
TTITLE16=I Just Fall In Love Again
TTITLE17=There's A Kind Of Hush	
TTITLE18=Solitaire
TTITLE19=We've Only Just Begun
TTITLE20=Yesterday Once More
TTITLE21=Sweet Sweet Smile
EXTD=
EXTT0=
EXTT1=
EXTT2=
EXTT3=
EXTT4=
EXTT5=
EXTT6=
EXTT7=
EXTT8=
EXTT9=
EXTT10=
EXTT11=
EXTT12=
EXTT13=
EXTT14=
EXTT15=
EXTT16=
EXTT17=
EXTT18=
EXTT19=
EXTT20=
EXTT21=
PLAYORDER=
